<svg width="1077" height="294" viewBox="0 0 1077 294" fill="none" xmlns="http://www.w3.org/2000/svg">
<path d="M360.03 128.86V58.06C360.03 57.38 360.52 56.89 361.2 56.89H373C373.68 56.89 374.17 57.38 374.17 58.06V78.73H405.86V58.06C405.86 57.38 406.35 56.89 407.03 56.89H418.83C419.51 56.89 420 57.38 420 58.06V128.86C420 129.54 419.51 130.03 418.83 130.03H407.03C406.35 130.03 405.86 129.54 405.86 128.86V91.9H374.17V128.86C374.17 129.54 373.68 130.03 373 130.03H361.2C360.52 130.03 360.03 129.54 360.03 128.86Z" fill="#262237"/>
<path d="M437.63 143.39C439 140.66 440.85 136.95 442.21 134.13L449.33 119.89L433.92 88.88C431.58 84.1 429.14 79.32 426.8 74.55C426.51 73.97 426.8 73.28 427.48 73.28H439.96C440.74 73.28 441.33 73.86 441.52 74.35C443.67 78.64 445.91 83.22 448.15 87.81L456.63 105.17L465.21 87.71C467.36 83.42 469.6 78.84 471.84 74.25C472.13 73.67 472.62 73.28 473.21 73.28H485.5C486.38 73.28 486.38 74.16 486.18 74.55C483.74 79.43 480.91 85.08 478.48 90.06L456.73 133.94C455.17 137.16 453.51 140.47 451.95 143.69C451.66 144.27 451.17 144.66 450.58 144.66H438.29C437.41 144.66 437.41 143.78 437.61 143.39H437.63Z" fill="#262237"/>
<path d="M552.22 101.75C552.22 117.94 538.66 131.2 522.28 131.2C517.11 131.2 511.07 129.64 505.51 125.64V143.49C505.51 144.17 505.02 144.66 504.34 144.66H493.52C492.84 144.66 492.35 144.17 492.35 143.49V74.45C492.35 73.77 492.84 73.28 493.52 73.28H504.34C505.02 73.28 505.51 73.77 505.51 74.45V77.57C511.17 73.47 517.21 72.01 522.28 72.01C538.66 72.01 552.22 85.37 552.22 101.75ZM505.51 101.75V101.85C505.51 110.92 513.02 119.01 522.28 119.01C531.54 119.01 539.05 110.92 539.05 101.75C539.05 92.58 531.64 84.2 522.28 84.2C512.92 84.2 505.51 92.29 505.51 101.75Z" fill="#262237"/>
<path d="M559.05 101.56C559.05 85.37 572.61 72.11 588.79 72.11C604.97 72.11 618.63 85.37 618.63 101.56C618.63 104.97 617.46 107.7 614.63 107.7H573.38C575.62 114.43 581.57 119.11 588.89 119.11C595.13 119.11 599.71 116.48 603.23 112.19C603.62 111.7 604.3 111.51 604.99 112L612.79 118.05C613.57 118.63 613.38 119.32 613.08 119.71C607.13 127.02 598.65 131.31 588.8 131.31C572.61 131.31 559.06 117.95 559.06 101.57L559.05 101.56ZM573.39 95.51H604.5C602.06 88.98 595.92 84.3 588.8 84.3C581.68 84.3 575.63 88.78 573.39 95.51Z" fill="#262237"/>
<path d="M626.02 128.86V74.45C626.02 73.77 626.51 73.28 627.19 73.28H637.04C637.72 73.28 638.21 73.77 638.21 74.45V77.08C642.01 73.96 647.28 72.59 650.98 72.59C654.49 72.59 657.03 72.98 659.17 73.76C659.95 74.05 659.95 74.64 659.85 75.12L657.61 84.09C657.41 84.87 656.83 85.16 656.24 85.06C654.87 84.67 653.02 84.57 651.75 84.57C645.41 84.57 639.17 88.37 639.17 99V128.84C639.17 129.62 638.68 130.01 638 130.01H627.18C626.5 130.01 626.01 129.62 626.01 128.84L626.02 128.86Z" fill="#262237"/>
<path d="M662.49 121.84C662.1 121.45 661.9 120.87 662.49 120.08L668.34 113.16C668.93 112.48 669.61 112.38 670.19 112.87C675.36 117.06 680.23 119.31 687.35 119.31C693.3 119.31 697.1 117.07 697.1 114.24C697.1 105.56 663.75 109.66 663.75 89.08C663.75 78.35 673.89 72.11 686.08 72.11C696.32 72.11 703.54 76.11 708.61 80.59C709.1 81.08 709.2 81.66 708.71 82.25L702.57 89.37C702.08 89.86 701.4 89.86 700.91 89.47C697.11 86.45 692.62 83.91 685.99 83.91C680.33 83.91 676.92 85.76 676.92 88.1C676.92 96.29 710.66 93.07 710.66 112.38C710.66 122.91 701.59 131.3 687.26 131.3C676.73 131.3 668.83 127.89 662.49 121.84Z" fill="#262237"/>
<path d="M716.4 101.56C716.4 85.37 729.96 72.11 746.14 72.11C751.41 72.11 757.55 73.57 763.11 77.47V74.45C763.11 73.77 763.6 73.28 764.28 73.28H775.1C775.78 73.28 776.27 73.77 776.27 74.45V128.87C776.27 129.55 775.78 130.04 775.1 130.04H764.28C763.6 130.04 763.11 129.55 763.11 128.87V125.94C757.45 129.94 751.41 131.3 746.14 131.3C729.95 131.3 716.4 117.94 716.4 101.56ZM762.72 101.66V101.56C762.72 92.39 755.41 84.3 746.14 84.3C736.87 84.3 729.56 92.39 729.56 101.56C729.56 110.73 736.78 119.11 746.14 119.11C755.5 119.11 762.72 111.02 762.72 101.65V101.66Z" fill="#262237"/>
<path d="M794.94 143.39C796.31 140.66 798.16 136.95 799.52 134.13L806.64 119.89L791.23 88.88C788.89 84.1 786.45 79.32 784.11 74.55C783.82 73.97 784.11 73.28 784.79 73.28H797.27C798.05 73.28 798.64 73.86 798.83 74.35C800.98 78.64 803.22 83.22 805.46 87.81L813.94 105.17L822.52 87.71C824.67 83.42 826.91 78.84 829.15 74.25C829.44 73.67 829.93 73.28 830.52 73.28H842.81C843.69 73.28 843.69 74.16 843.49 74.55C841.05 79.43 838.22 85.08 835.79 90.06L814.04 133.94C812.48 137.16 810.82 140.47 809.26 143.69C808.97 144.27 808.48 144.66 807.89 144.66H795.6C794.72 144.66 794.72 143.78 794.92 143.39H794.94Z" fill="#262237"/>
<path d="M211.52 20C245.66 20 273.33 47.67 273.33 81.81V211.52C273.33 245.66 245.66 273.33 211.52 273.33H81.81C47.67 273.33 20 245.66 20 211.52V81.81C20 47.67 47.67 20 81.81 20H211.52Z" fill="white"/>
<path fill-rule="evenodd" clip-rule="evenodd" d="M211.52 0C256.706 0 293.33 36.6243 293.33 81.81V211.52C293.33 256.706 256.706 293.33 211.52 293.33H81.81C36.6243 293.33 0 256.706 0 211.52V81.81C0 36.6243 36.6243 0 81.81 0H211.52ZM273.33 81.81C273.33 47.67 245.66 20 211.52 20H81.81C47.67 20 20 47.67 20 81.81V211.52C20 245.66 47.67 273.33 81.81 273.33H211.52C245.66 273.33 273.33 245.66 273.33 211.52V81.81Z" fill="#E8E8E8"/>
<path d="M98.3402 121.4H196.94C210.24 121.4 221.04 132.2 221.04 145.5C221.04 158.8 210.24 169.6 196.94 169.6H98.3402C85.0402 169.6 74.2402 158.8 74.2402 145.5C74.2402 132.2 85.0402 121.4 98.3402 121.4Z" fill="#FCD299"/>
<path d="M98.3402 63.32H162.02C175.32 63.32 186.12 74.12 186.12 87.42C186.12 100.72 175.32 111.52 162.02 111.52H98.3402C85.0402 111.52 74.2402 100.72 74.2402 87.42C74.2402 74.12 85.0402 63.32 98.3402 63.32Z" fill="#FCD299"/>
<path d="M98.3402 178.56H162.02C175.32 178.56 186.12 189.36 186.12 202.66C186.12 215.96 175.32 226.76 162.02 226.76H98.3402C85.0402 226.76 74.2402 215.96 74.2402 202.66C74.2402 189.36 85.0402 178.56 98.3402 178.56Z" fill="#FCD299"/>
<path d="M161.57 178.56H162.02C175.32 178.56 186.12 189.36 186.12 202.66C186.12 215.96 175.32 226.76 162.02 226.76H161.57C148.27 226.76 137.47 215.96 137.47 202.66C137.47 189.36 148.27 178.56 161.57 178.56Z" fill="#FAB14E"/>
<path d="M98.3402 121.4H98.7902C112.09 121.4 122.89 132.2 122.89 145.5C122.89 158.8 112.09 169.6 98.7902 169.6H98.3402C85.0402 169.6 74.2402 158.8 74.2402 145.5C74.2402 132.2 85.0402 121.4 98.3402 121.4Z" fill="#FAB14E"/>
<path d="M401.616 225.8L384.426 197.54L374.226 227.55C372.766 231.92 371.116 236.78 369.666 241.05C369.376 241.83 368.696 242.41 367.916 242.41H356.066C355.186 242.41 354.806 241.54 355.096 240.66C356.646 236.1 358.206 231.63 359.756 226.97L378.696 171.22C379.276 169.57 380.346 168.79 381.606 168.79C382.966 168.79 383.746 169.57 384.716 171.12L404.816 204.14L425.116 171.12C425.986 169.66 426.866 168.79 428.226 168.79C429.486 168.79 430.556 169.57 431.136 171.22L449.876 226.29C451.526 231.05 453.176 235.91 454.826 240.66C455.116 241.53 454.726 242.41 453.856 242.41H441.906C441.126 242.41 440.446 241.83 440.156 241.05C438.506 236.19 436.946 231.53 435.296 226.77L425.296 197.24L407.906 225.79C407.036 227.25 406.156 228.12 404.896 228.12C403.536 228.12 402.566 227.34 401.596 225.79L401.616 225.8Z" fill="#FAB14E"/>
<path d="M457.956 218.42V187.05C457.956 186.27 458.446 185.88 459.126 185.88H469.906C470.586 185.88 471.076 186.27 471.076 187.05V218.81C471.076 227.16 476.226 231.63 483.706 231.63C491.186 231.63 496.336 227.16 496.336 218.81V187.05C496.336 186.27 496.826 185.88 497.506 185.88H508.286C508.966 185.88 509.456 186.27 509.456 187.05V218.52C509.456 232.51 500.716 243.67 483.716 243.67C466.716 243.67 457.976 232.5 457.976 218.42H457.956Z" fill="#FAB14E"/>
<path d="M520.376 241.24V170.73C520.376 169.95 520.866 169.56 521.546 169.56H532.326C533.006 169.56 533.496 169.95 533.496 170.73V229.59C533.496 229.98 533.786 230.27 534.176 230.27H538.836C539.516 230.27 540.006 230.76 540.006 231.44V241.25C540.006 241.93 539.516 242.42 538.836 242.42H521.546C520.866 242.42 520.376 241.93 520.376 241.25V241.24Z" fill="#FAB14E"/>
<path d="M550.236 221.62V198.02H543.636C542.956 198.02 542.466 197.53 542.466 196.85V187.04C542.466 186.36 542.956 185.87 543.636 185.87H550.236V175.19C550.236 174.32 550.816 173.73 551.496 173.64C554.706 173.15 558.776 172.47 561.696 171.99C562.956 171.8 563.346 172.48 563.346 173.16V185.88H578.396C579.076 185.88 579.566 186.37 579.566 187.05V196.86C579.566 197.54 579.076 198.03 578.396 198.03H563.346V221.05C563.346 227.85 567.906 231.44 574.316 231.44C575.776 231.44 577.426 231.25 578.686 230.95C579.466 230.76 579.946 231.05 580.146 231.63L582.376 240.86C582.476 241.35 582.276 241.93 581.696 242.12C578.876 243.09 575.676 243.38 573.056 243.38C558.196 243.38 550.236 233.08 550.236 221.62Z" fill="#FAB14E"/>
<path d="M590.726 173.16C590.726 169.18 593.736 166.75 598.496 166.75C603.256 166.75 606.166 169.18 606.166 173.16C606.166 177.14 603.156 179.57 598.496 179.57C593.836 179.57 590.726 177.04 590.726 173.16ZM591.896 241.24V187.05C591.896 186.27 592.386 185.88 593.066 185.88H603.846C604.526 185.88 605.016 186.27 605.016 187.05V241.24C605.016 242.02 604.526 242.41 603.846 242.41H593.066C592.386 242.41 591.896 242.02 591.896 241.24Z" fill="#FAB14E"/>
<path d="M617.516 241.24V170.73C617.516 169.95 618.006 169.56 618.686 169.56H629.466C630.146 169.56 630.636 169.95 630.636 170.73V229.59C630.636 229.98 630.926 230.27 631.316 230.27H635.976C636.656 230.27 637.146 230.76 637.146 231.44V241.25C637.146 241.93 636.656 242.42 635.976 242.42H618.686C618.006 242.42 617.516 241.93 617.516 241.25V241.24Z" fill="#FAB14E"/>
<path d="M641.846 214.05C641.846 197.93 655.346 184.72 671.466 184.72C676.706 184.72 682.826 186.18 688.366 190.06V187.05C688.366 186.37 688.856 185.88 689.536 185.88H700.316C700.996 185.88 701.486 186.37 701.486 187.05V241.24C701.486 241.92 700.996 242.41 700.316 242.41H689.536C688.856 242.41 688.366 241.92 688.366 241.24V238.33C682.736 242.31 676.706 243.67 671.466 243.67C655.346 243.67 641.846 230.36 641.846 214.05ZM687.976 214.15V214.05C687.976 204.92 680.696 196.86 671.466 196.86C662.236 196.86 654.956 204.92 654.956 214.05C654.956 223.18 662.146 231.53 671.466 231.53C680.786 231.53 687.976 223.47 687.976 214.15Z" fill="#FAB14E"/>
<path d="M712.346 241.24V187.05C712.346 186.37 712.836 185.88 713.516 185.88H723.326C724.006 185.88 724.496 186.37 724.496 187.05V189.67C729.256 186.08 735.176 184.62 740.526 184.62C754.806 184.62 763.836 194.14 763.836 208.12V241.24C763.836 242.02 763.346 242.41 762.666 242.41H751.886C751.206 242.41 750.716 242.02 750.716 241.24V208.61C750.716 199.77 745.376 196.76 739.056 196.76C731.576 196.76 725.456 201.81 725.456 210.16V241.24C725.456 242.02 724.966 242.41 724.286 242.41H713.506C712.826 242.41 712.336 242.02 712.336 241.24H712.346Z" fill="#FAB14E"/>
<path d="M776.306 252.02C775.726 251.63 775.816 250.76 776.116 250.27L780.676 242.79C780.866 242.5 781.546 242.01 782.326 242.5C786.406 245.12 791.646 246.68 796.696 246.68C804.566 246.68 811.066 242.7 812.336 234.64C809.126 237.46 804.466 239.11 798.836 239.11C783.876 239.11 771.346 226.87 771.346 211.72C771.346 196.57 783.876 184.72 798.836 184.72C803.696 184.72 808.746 186.18 813.206 189.09V187.05C813.206 186.37 813.696 185.88 814.376 185.88H825.156C825.836 185.88 826.326 186.37 826.326 187.05V229.98C826.326 246.39 814.476 258.15 798.256 258.15C789.806 258.15 782.816 256.21 776.306 252.03V252.02ZM813.216 211.91V211.81C813.216 203.94 806.806 196.85 798.846 196.85C790.886 196.85 784.476 203.94 784.476 211.81C784.476 219.68 790.696 226.96 798.946 226.96C807.196 226.96 813.226 219.87 813.226 211.91H813.216Z" fill="#FAB14E"/>
<path d="M834.166 218.42V187.05C834.166 186.27 834.656 185.88 835.336 185.88H846.116C846.796 185.88 847.286 186.27 847.286 187.05V218.81C847.286 227.16 852.436 231.63 859.916 231.63C867.396 231.63 872.546 227.16 872.546 218.81V187.05C872.546 186.27 873.036 185.88 873.716 185.88H884.496C885.176 185.88 885.666 186.27 885.666 187.05V218.52C885.666 232.51 876.926 243.67 859.926 243.67C842.926 243.67 834.186 232.5 834.186 218.42H834.166Z" fill="#FAB14E"/>
<path d="M891.436 214.05C891.436 197.93 904.936 184.72 921.056 184.72C926.296 184.72 932.416 186.18 937.956 190.06V187.05C937.956 186.37 938.446 185.88 939.126 185.88H949.906C950.586 185.88 951.076 186.37 951.076 187.05V241.24C951.076 241.92 950.586 242.41 949.906 242.41H939.126C938.446 242.41 937.956 241.92 937.956 241.24V238.33C932.326 242.31 926.296 243.67 921.056 243.67C904.936 243.67 891.436 230.36 891.436 214.05ZM937.566 214.15V214.05C937.566 204.92 930.286 196.86 921.056 196.86C911.826 196.86 904.546 204.92 904.546 214.05C904.546 223.18 911.736 231.53 921.056 231.53C930.376 231.53 937.566 223.47 937.566 214.15Z" fill="#FAB14E"/>
<path d="M961.276 252.02C960.696 251.63 960.786 250.76 961.086 250.27L965.646 242.79C965.836 242.5 966.516 242.01 967.296 242.5C971.376 245.12 976.616 246.68 981.666 246.68C989.536 246.68 996.036 242.7 997.306 234.64C994.096 237.46 989.436 239.11 983.806 239.11C968.846 239.11 956.316 226.87 956.316 211.72C956.316 196.57 968.846 184.72 983.806 184.72C988.666 184.72 993.716 186.18 998.176 189.09V187.05C998.176 186.37 998.666 185.88 999.346 185.88H1010.13C1010.81 185.88 1011.3 186.37 1011.3 187.05V229.98C1011.3 246.39 999.446 258.15 983.226 258.15C974.776 258.15 967.786 256.21 961.276 252.03V252.02ZM998.186 211.91V211.81C998.186 203.94 991.776 196.85 983.816 196.85C975.856 196.85 969.446 203.94 969.446 211.81C969.446 219.68 975.666 226.96 983.916 226.96C992.166 226.96 998.196 219.87 998.196 211.91H998.186Z" fill="#FAB14E"/>
<path d="M1017.1 214.05C1017.1 197.93 1030.6 184.72 1046.72 184.72C1062.84 184.72 1076.44 197.93 1076.44 214.05C1076.44 217.45 1075.27 220.17 1072.46 220.17H1031.38C1033.61 226.87 1039.54 231.53 1046.82 231.53C1053.04 231.53 1057.6 228.91 1061.1 224.63C1061.49 224.14 1062.17 223.95 1062.85 224.44L1070.62 230.46C1071.4 231.04 1071.2 231.72 1070.91 232.11C1064.99 239.39 1056.54 243.67 1046.73 243.67C1030.61 243.67 1017.11 230.36 1017.11 214.05H1017.1ZM1031.38 208.03H1062.36C1059.93 201.52 1053.81 196.86 1046.72 196.86C1039.63 196.86 1033.61 201.33 1031.37 208.03H1031.38Z" fill="#FAB14E"/>
</svg>
