<svg width="1062" height="254" viewBox="0 0 1062 254" fill="none" xmlns="http://www.w3.org/2000/svg">
<path d="M340.03 108.86V38.06C340.03 37.38 340.52 36.89 341.2 36.89H353C353.68 36.89 354.17 37.38 354.17 38.06V58.73H385.86V38.06C385.86 37.38 386.35 36.89 387.03 36.89H398.83C399.51 36.89 400 37.38 400 38.06V108.86C400 109.54 399.51 110.03 398.83 110.03H387.03C386.35 110.03 385.86 109.54 385.86 108.86V71.9H354.17V108.86C354.17 109.54 353.68 110.03 353 110.03H341.2C340.52 110.03 340.03 109.54 340.03 108.86Z" fill="white"/>
<path d="M417.63 123.39C419 120.66 420.85 116.95 422.21 114.13L429.33 99.89L413.92 68.88C411.58 64.1 409.14 59.32 406.8 54.55C406.51 53.97 406.8 53.28 407.48 53.28H419.96C420.74 53.28 421.33 53.86 421.52 54.35C423.67 58.64 425.91 63.22 428.15 67.81L436.63 85.17L445.21 67.71C447.36 63.42 449.6 58.84 451.84 54.25C452.13 53.67 452.62 53.28 453.21 53.28H465.5C466.38 53.28 466.38 54.16 466.18 54.55C463.74 59.43 460.91 65.08 458.48 70.06L436.73 113.94C435.17 117.16 433.51 120.47 431.95 123.69C431.66 124.27 431.17 124.66 430.58 124.66H418.29C417.41 124.66 417.41 123.78 417.61 123.39H417.63Z" fill="white"/>
<path d="M532.22 81.75C532.22 97.94 518.66 111.2 502.28 111.2C497.11 111.2 491.07 109.64 485.51 105.64V123.49C485.51 124.17 485.02 124.66 484.34 124.66H473.52C472.84 124.66 472.35 124.17 472.35 123.49V54.45C472.35 53.77 472.84 53.28 473.52 53.28H484.34C485.02 53.28 485.51 53.77 485.51 54.45V57.57C491.17 53.47 497.21 52.01 502.28 52.01C518.66 52.01 532.22 65.37 532.22 81.75ZM485.51 81.75V81.85C485.51 90.92 493.02 99.01 502.28 99.01C511.54 99.01 519.05 90.92 519.05 81.75C519.05 72.58 511.64 64.2 502.28 64.2C492.92 64.2 485.51 72.29 485.51 81.75Z" fill="white"/>
<path d="M539.05 81.56C539.05 65.37 552.61 52.11 568.79 52.11C584.97 52.11 598.63 65.37 598.63 81.56C598.63 84.97 597.46 87.7 594.63 87.7H553.38C555.62 94.43 561.57 99.11 568.89 99.11C575.13 99.11 579.71 96.48 583.23 92.19C583.62 91.7 584.3 91.51 584.99 92L592.79 98.05C593.57 98.63 593.38 99.32 593.08 99.71C587.13 107.02 578.65 111.31 568.8 111.31C552.61 111.31 539.06 97.95 539.06 81.57L539.05 81.56ZM553.39 75.51H584.5C582.06 68.98 575.92 64.3 568.8 64.3C561.68 64.3 555.63 68.78 553.39 75.51Z" fill="white"/>
<path d="M606.02 108.86V54.45C606.02 53.77 606.51 53.28 607.19 53.28H617.04C617.72 53.28 618.21 53.77 618.21 54.45V57.08C622.01 53.96 627.28 52.59 630.98 52.59C634.49 52.59 637.03 52.98 639.17 53.76C639.95 54.05 639.95 54.64 639.85 55.12L637.61 64.09C637.41 64.87 636.83 65.16 636.24 65.06C634.87 64.67 633.02 64.57 631.75 64.57C625.41 64.57 619.17 68.37 619.17 79V108.84C619.17 109.62 618.68 110.01 618 110.01H607.18C606.5 110.01 606.01 109.62 606.01 108.84L606.02 108.86Z" fill="white"/>
<path d="M642.49 101.84C642.1 101.45 641.9 100.87 642.49 100.08L648.34 93.16C648.93 92.48 649.61 92.38 650.19 92.87C655.36 97.06 660.23 99.31 667.35 99.31C673.3 99.31 677.1 97.07 677.1 94.24C677.1 85.56 643.75 89.66 643.75 69.08C643.75 58.35 653.89 52.11 666.08 52.11C676.32 52.11 683.54 56.11 688.61 60.59C689.1 61.08 689.2 61.66 688.71 62.25L682.57 69.37C682.08 69.86 681.4 69.86 680.91 69.47C677.11 66.45 672.62 63.91 665.99 63.91C660.33 63.91 656.92 65.76 656.92 68.1C656.92 76.29 690.66 73.07 690.66 92.38C690.66 102.91 681.59 111.3 667.26 111.3C656.73 111.3 648.83 107.89 642.49 101.84Z" fill="white"/>
<path d="M696.4 81.56C696.4 65.37 709.96 52.11 726.14 52.11C731.41 52.11 737.55 53.57 743.11 57.47V54.45C743.11 53.77 743.6 53.28 744.28 53.28H755.1C755.78 53.28 756.27 53.77 756.27 54.45V108.87C756.27 109.55 755.78 110.04 755.1 110.04H744.28C743.6 110.04 743.11 109.55 743.11 108.87V105.94C737.45 109.94 731.41 111.3 726.14 111.3C709.95 111.3 696.4 97.94 696.4 81.56ZM742.72 81.66V81.56C742.72 72.39 735.41 64.3 726.14 64.3C716.87 64.3 709.56 72.39 709.56 81.56C709.56 90.73 716.78 99.11 726.14 99.11C735.5 99.11 742.72 91.02 742.72 81.65V81.66Z" fill="white"/>
<path d="M774.94 123.39C776.31 120.66 778.16 116.95 779.52 114.13L786.64 99.89L771.23 68.88C768.89 64.1 766.45 59.32 764.11 54.55C763.82 53.97 764.11 53.28 764.79 53.28H777.27C778.05 53.28 778.64 53.86 778.83 54.35C780.98 58.64 783.22 63.22 785.46 67.81L793.94 85.17L802.52 67.71C804.67 63.42 806.91 58.84 809.15 54.25C809.44 53.67 809.93 53.28 810.52 53.28H822.81C823.69 53.28 823.69 54.16 823.49 54.55C821.05 59.43 818.22 65.08 815.79 70.06L794.04 113.94C792.48 117.16 790.82 120.47 789.26 123.69C788.97 124.27 788.48 124.66 787.89 124.66H775.6C774.72 124.66 774.72 123.78 774.92 123.39H774.94Z" fill="white"/>
<path d="M191.52 0C225.66 0 253.33 27.67 253.33 61.81V191.52C253.33 225.66 225.66 253.33 191.52 253.33H61.81C27.67 253.33 0 225.66 0 191.52V61.81C0 27.67 27.67 0 61.81 0H191.52Z" fill="white"/>
<path d="M78.3402 101.4H176.94C190.24 101.4 201.04 112.2 201.04 125.5C201.04 138.8 190.24 149.6 176.94 149.6H78.3402C65.0402 149.6 54.2402 138.8 54.2402 125.5C54.2402 112.2 65.0402 101.4 78.3402 101.4Z" fill="#FCD299"/>
<path d="M78.3402 43.32H142.02C155.32 43.32 166.12 54.12 166.12 67.42C166.12 80.72 155.32 91.52 142.02 91.52H78.3402C65.0402 91.52 54.2402 80.72 54.2402 67.42C54.2402 54.12 65.0402 43.32 78.3402 43.32Z" fill="#FCD299"/>
<path d="M78.3402 158.56H142.02C155.32 158.56 166.12 169.36 166.12 182.66C166.12 195.96 155.32 206.76 142.02 206.76H78.3402C65.0402 206.76 54.2402 195.96 54.2402 182.66C54.2402 169.36 65.0402 158.56 78.3402 158.56Z" fill="#FCD299"/>
<path d="M141.57 158.56H142.02C155.32 158.56 166.12 169.36 166.12 182.66C166.12 195.96 155.32 206.76 142.02 206.76H141.57C128.27 206.76 117.47 195.96 117.47 182.66C117.47 169.36 128.27 158.56 141.57 158.56Z" fill="#FAB14E"/>
<path d="M78.3402 101.4H78.7902C92.0902 101.4 102.89 112.2 102.89 125.5C102.89 138.8 92.0902 149.6 78.7902 149.6H78.3402C65.0402 149.6 54.2402 138.8 54.2402 125.5C54.2402 112.2 65.0402 101.4 78.3402 101.4Z" fill="#FAB14E"/>
<path d="M386.616 206.13L369.426 177.87L359.226 207.88C357.766 212.25 356.116 217.11 354.666 221.38C354.376 222.16 353.696 222.74 352.916 222.74H341.066C340.186 222.74 339.806 221.87 340.096 220.99C341.646 216.43 343.206 211.96 344.756 207.3L363.696 151.55C364.276 149.9 365.346 149.12 366.606 149.12C367.966 149.12 368.746 149.9 369.716 151.45L389.816 184.47L410.116 151.45C410.986 149.99 411.866 149.12 413.226 149.12C414.486 149.12 415.556 149.9 416.136 151.55L434.876 206.62C436.526 211.38 438.176 216.24 439.826 220.99C440.116 221.86 439.726 222.74 438.856 222.74H426.906C426.126 222.74 425.446 222.16 425.156 221.38C423.506 216.52 421.946 211.86 420.296 207.1L410.296 177.57L392.906 206.12C392.036 207.58 391.156 208.45 389.896 208.45C388.536 208.45 387.566 207.67 386.596 206.12L386.616 206.13Z" fill="#FAB14E"/>
<path d="M442.956 198.75V167.38C442.956 166.6 443.446 166.21 444.126 166.21H454.906C455.586 166.21 456.076 166.6 456.076 167.38V199.14C456.076 207.49 461.226 211.96 468.706 211.96C476.186 211.96 481.336 207.49 481.336 199.14V167.38C481.336 166.6 481.826 166.21 482.506 166.21H493.286C493.966 166.21 494.456 166.6 494.456 167.38V198.85C494.456 212.84 485.716 224 468.716 224C451.716 224 442.976 212.83 442.976 198.75H442.956Z" fill="#FAB14E"/>
<path d="M505.376 221.57V151.06C505.376 150.28 505.866 149.89 506.546 149.89H517.326C518.006 149.89 518.496 150.28 518.496 151.06V209.92C518.496 210.31 518.786 210.6 519.176 210.6H523.836C524.516 210.6 525.006 211.09 525.006 211.77V221.58C525.006 222.26 524.516 222.75 523.836 222.75H506.546C505.866 222.75 505.376 222.26 505.376 221.58V221.57Z" fill="#FAB14E"/>
<path d="M535.236 201.95V178.35H528.636C527.956 178.35 527.466 177.86 527.466 177.18V167.37C527.466 166.69 527.956 166.2 528.636 166.2H535.236V155.52C535.236 154.65 535.816 154.06 536.496 153.97C539.706 153.48 543.776 152.8 546.696 152.32C547.956 152.13 548.346 152.81 548.346 153.49V166.21H563.396C564.076 166.21 564.566 166.7 564.566 167.38V177.19C564.566 177.87 564.076 178.36 563.396 178.36H548.346V201.38C548.346 208.18 552.906 211.77 559.316 211.77C560.776 211.77 562.426 211.58 563.686 211.28C564.466 211.09 564.946 211.38 565.146 211.96L567.376 221.19C567.476 221.68 567.276 222.26 566.696 222.45C563.876 223.42 560.676 223.71 558.056 223.71C543.196 223.71 535.236 213.41 535.236 201.95Z" fill="#FAB14E"/>
<path d="M575.726 153.49C575.726 149.51 578.736 147.08 583.496 147.08C588.256 147.08 591.166 149.51 591.166 153.49C591.166 157.47 588.156 159.9 583.496 159.9C578.836 159.9 575.726 157.37 575.726 153.49ZM576.896 221.57V167.38C576.896 166.6 577.386 166.21 578.066 166.21H588.846C589.526 166.21 590.016 166.6 590.016 167.38V221.57C590.016 222.35 589.526 222.74 588.846 222.74H578.066C577.386 222.74 576.896 222.35 576.896 221.57Z" fill="#FAB14E"/>
<path d="M602.516 221.57V151.06C602.516 150.28 603.006 149.89 603.686 149.89H614.466C615.146 149.89 615.636 150.28 615.636 151.06V209.92C615.636 210.31 615.926 210.6 616.316 210.6H620.976C621.656 210.6 622.146 211.09 622.146 211.77V221.58C622.146 222.26 621.656 222.75 620.976 222.75H603.686C603.006 222.75 602.516 222.26 602.516 221.58V221.57Z" fill="#FAB14E"/>
<path d="M626.846 194.38C626.846 178.26 640.346 165.05 656.466 165.05C661.706 165.05 667.826 166.51 673.366 170.39V167.38C673.366 166.7 673.856 166.21 674.536 166.21H685.316C685.996 166.21 686.486 166.7 686.486 167.38V221.57C686.486 222.25 685.996 222.74 685.316 222.74H674.536C673.856 222.74 673.366 222.25 673.366 221.57V218.66C667.736 222.64 661.706 224 656.466 224C640.346 224 626.846 210.69 626.846 194.38ZM672.976 194.48V194.38C672.976 185.25 665.696 177.19 656.466 177.19C647.236 177.19 639.956 185.25 639.956 194.38C639.956 203.51 647.146 211.86 656.466 211.86C665.786 211.86 672.976 203.8 672.976 194.48Z" fill="#FAB14E"/>
<path d="M697.346 221.57V167.38C697.346 166.7 697.836 166.21 698.516 166.21H708.326C709.006 166.21 709.496 166.7 709.496 167.38V170C714.256 166.41 720.176 164.95 725.526 164.95C739.806 164.95 748.836 174.47 748.836 188.45V221.57C748.836 222.35 748.346 222.74 747.666 222.74H736.886C736.206 222.74 735.716 222.35 735.716 221.57V188.94C735.716 180.1 730.376 177.09 724.056 177.09C716.576 177.09 710.456 182.14 710.456 190.49V221.57C710.456 222.35 709.966 222.74 709.286 222.74H698.506C697.826 222.74 697.336 222.35 697.336 221.57H697.346Z" fill="#FAB14E"/>
<path d="M761.306 232.35C760.726 231.96 760.816 231.09 761.116 230.6L765.676 223.12C765.866 222.83 766.546 222.34 767.326 222.83C771.406 225.45 776.646 227.01 781.696 227.01C789.566 227.01 796.066 223.03 797.336 214.97C794.126 217.79 789.466 219.44 783.836 219.44C768.876 219.44 756.346 207.2 756.346 192.05C756.346 176.9 768.876 165.05 783.836 165.05C788.696 165.05 793.746 166.51 798.206 169.42V167.38C798.206 166.7 798.696 166.21 799.376 166.21H810.156C810.836 166.21 811.326 166.7 811.326 167.38V210.31C811.326 226.72 799.476 238.48 783.256 238.48C774.806 238.48 767.816 236.54 761.306 232.36V232.35ZM798.216 192.24V192.14C798.216 184.27 791.806 177.18 783.846 177.18C775.886 177.18 769.476 184.27 769.476 192.14C769.476 200.01 775.696 207.29 783.946 207.29C792.196 207.29 798.226 200.2 798.226 192.24H798.216Z" fill="#FAB14E"/>
<path d="M819.166 198.75V167.38C819.166 166.6 819.656 166.21 820.336 166.21H831.116C831.796 166.21 832.286 166.6 832.286 167.38V199.14C832.286 207.49 837.436 211.96 844.916 211.96C852.396 211.96 857.546 207.49 857.546 199.14V167.38C857.546 166.6 858.036 166.21 858.716 166.21H869.496C870.176 166.21 870.666 166.6 870.666 167.38V198.85C870.666 212.84 861.926 224 844.926 224C827.926 224 819.186 212.83 819.186 198.75H819.166Z" fill="#FAB14E"/>
<path d="M876.436 194.38C876.436 178.26 889.936 165.05 906.056 165.05C911.296 165.05 917.416 166.51 922.956 170.39V167.38C922.956 166.7 923.446 166.21 924.126 166.21H934.906C935.586 166.21 936.076 166.7 936.076 167.38V221.57C936.076 222.25 935.586 222.74 934.906 222.74H924.126C923.446 222.74 922.956 222.25 922.956 221.57V218.66C917.326 222.64 911.296 224 906.056 224C889.936 224 876.436 210.69 876.436 194.38ZM922.566 194.48V194.38C922.566 185.25 915.286 177.19 906.056 177.19C896.826 177.19 889.546 185.25 889.546 194.38C889.546 203.51 896.736 211.86 906.056 211.86C915.376 211.86 922.566 203.8 922.566 194.48Z" fill="#FAB14E"/>
<path d="M946.276 232.35C945.696 231.96 945.786 231.09 946.086 230.6L950.646 223.12C950.836 222.83 951.516 222.34 952.296 222.83C956.376 225.45 961.616 227.01 966.666 227.01C974.536 227.01 981.036 223.03 982.306 214.97C979.096 217.79 974.436 219.44 968.806 219.44C953.846 219.44 941.316 207.2 941.316 192.05C941.316 176.9 953.846 165.05 968.806 165.05C973.666 165.05 978.716 166.51 983.176 169.42V167.38C983.176 166.7 983.666 166.21 984.346 166.21H995.126C995.806 166.21 996.296 166.7 996.296 167.38V210.31C996.296 226.72 984.446 238.48 968.226 238.48C959.776 238.48 952.786 236.54 946.276 232.36V232.35ZM983.186 192.24V192.14C983.186 184.27 976.776 177.18 968.816 177.18C960.856 177.18 954.446 184.27 954.446 192.14C954.446 200.01 960.666 207.29 968.916 207.29C977.166 207.29 983.196 200.2 983.196 192.24H983.186Z" fill="#FAB14E"/>
<path d="M1002.1 194.38C1002.1 178.26 1015.6 165.05 1031.72 165.05C1047.84 165.05 1061.44 178.26 1061.44 194.38C1061.44 197.78 1060.27 200.5 1057.46 200.5H1016.38C1018.61 207.2 1024.54 211.86 1031.82 211.86C1038.04 211.86 1042.6 209.24 1046.1 204.96C1046.49 204.47 1047.17 204.28 1047.85 204.77L1055.62 210.79C1056.4 211.37 1056.2 212.05 1055.91 212.44C1049.99 219.72 1041.54 224 1031.73 224C1015.61 224 1002.11 210.69 1002.11 194.38H1002.1ZM1016.38 188.36H1047.36C1044.93 181.85 1038.81 177.19 1031.72 177.19C1024.63 177.19 1018.61 181.66 1016.37 188.36H1016.38Z" fill="#FAB14E"/>
</svg>
