<svg width="148" height="164" viewBox="0 0 148 164" fill="none" xmlns="http://www.w3.org/2000/svg">
<path d="M24.3402 58.3901H122.94C136.24 58.3901 147.04 69.1901 147.04 82.4901C147.04 95.7901 136.24 106.59 122.94 106.59H24.3402C11.0402 106.59 0.240234 95.7901 0.240234 82.4901C0.240234 69.1901 11.0402 58.3901 24.3402 58.3901Z" fill="#FCD299"/>
<path d="M24.3402 0.310059H88.0202C101.32 0.310059 112.12 11.1101 112.12 24.4101C112.12 37.7101 101.32 48.5101 88.0202 48.5101H24.3402C11.0402 48.5101 0.240234 37.7101 0.240234 24.4101C0.240234 11.1101 11.0402 0.310059 24.3402 0.310059V0.310059Z" fill="#FCD299"/>
<path d="M24.3402 115.55H88.0202C101.32 115.55 112.12 126.35 112.12 139.65C112.12 152.95 101.32 163.75 88.0202 163.75H24.3402C11.0402 163.75 0.240234 152.95 0.240234 139.65C0.240234 126.35 11.0402 115.55 24.3402 115.55Z" fill="#FCD299"/>
<path d="M87.5702 115.55H88.0202C101.32 115.55 112.12 126.35 112.12 139.65C112.12 152.95 101.32 163.75 88.0202 163.75H87.5702C74.2702 163.75 63.4702 152.95 63.4702 139.65C63.4702 126.35 74.2702 115.55 87.5702 115.55Z" fill="#FAB14E"/>
<path d="M24.3402 58.3901H24.7902C38.0902 58.3901 48.8902 69.1901 48.8902 82.4901C48.8902 95.7901 38.0902 106.59 24.7902 106.59H24.3402C11.0402 106.59 0.240234 95.7901 0.240234 82.4901C0.240234 69.1901 11.0402 58.3901 24.3402 58.3901V58.3901Z" fill="#FAB14E"/>
</svg>
