<svg width="419" height="93" viewBox="0 0 419 93" fill="none" xmlns="http://www.w3.org/2000/svg">
<path fill-rule="evenodd" clip-rule="evenodd" d="M25.9102 17.4872C27.9778 17.4872 29.6538 15.8111 29.6538 13.7436C29.6538 11.6761 27.9778 10 25.9102 10C23.8427 10 22.1667 11.6761 22.1667 13.7436C22.1667 15.8111 23.8427 17.4872 25.9102 17.4872ZM72.7051 21.2309C72.7051 23.2984 71.029 24.9745 68.9615 24.9745C66.894 24.9745 65.2179 23.2984 65.2179 21.2309C65.2179 19.1634 66.894 17.4873 68.9615 17.4873C71.029 17.4873 72.7051 19.1634 72.7051 21.2309ZM67.0898 26.8462C67.0898 28.9047 65.4282 30.5752 63.3731 30.5897C65.4282 30.6041 67.0898 32.2746 67.0898 34.3332C67.0898 36.4007 65.4137 38.0767 63.3462 38.0767C61.2786 38.0767 59.6026 36.4007 59.6026 34.3332C59.6026 32.2746 61.2641 30.6041 63.3193 30.5897C61.2641 30.5752 59.6026 28.9047 59.6026 26.8462C59.6026 24.7787 61.2786 23.1026 63.3462 23.1026C65.4137 23.1026 67.0898 24.7787 67.0898 26.8462ZM63.3732 53.0512C65.4283 53.0367 67.0898 51.3663 67.0898 49.3078C67.0898 47.2402 65.4137 45.5642 63.3462 45.5642C61.2786 45.5642 59.6026 47.2402 59.6026 49.3078C59.6026 51.3663 61.2641 53.0367 63.3191 53.0512C61.2641 53.0658 59.6026 54.7362 59.6026 56.7947C59.6026 58.8623 61.2786 60.5383 63.3462 60.5383C65.4137 60.5383 67.0898 58.8623 67.0898 56.7947C67.0898 54.7362 65.4283 53.0658 63.3732 53.0512ZM37.141 64.282C37.141 66.3496 35.465 68.0256 33.3974 68.0256C31.3299 68.0256 29.6538 66.3496 29.6538 64.282C29.6538 62.2145 31.3299 60.5384 33.3974 60.5384C35.465 60.5384 37.141 62.2145 37.141 64.282ZM67.0897 64.2895C67.0857 66.3536 65.4112 68.0256 63.3462 68.0256C61.2786 68.0256 59.6026 66.3496 59.6026 64.282C59.6026 62.2145 61.2786 60.5384 63.3462 60.5384C65.4112 60.5384 67.0857 62.2105 67.0897 64.2746C67.0938 62.2105 68.7683 60.5384 70.8333 60.5384C72.9008 60.5384 74.5769 62.2145 74.5769 64.282C74.5769 66.3496 72.9008 68.0256 70.8333 68.0256C68.7683 68.0256 67.0938 66.3536 67.0897 64.2895ZM67.0898 71.7694C67.0898 73.8369 65.4137 75.513 63.3462 75.513C61.2786 75.513 59.6026 73.8369 59.6026 71.7694C59.6026 69.7018 61.2786 68.0258 63.3462 68.0258C65.4137 68.0258 67.0898 69.7018 67.0898 71.7694ZM37.141 71.7694C37.141 73.8278 35.4797 75.4982 33.4247 75.5129C35.4797 75.5275 37.141 77.1979 37.141 79.2563C37.141 81.3239 35.465 82.9999 33.3974 82.9999C31.3299 82.9999 29.6538 81.3239 29.6538 79.2563C29.6538 77.1979 31.3152 75.5275 33.3701 75.5129C31.3152 75.4982 29.6538 73.8278 29.6538 71.7694C29.6538 69.7018 31.3299 68.0258 33.3974 68.0258C35.465 68.0258 37.141 69.7018 37.141 71.7694ZM70.8333 82.9999C72.9008 82.9999 74.5769 81.3239 74.5769 79.2563C74.5769 77.1888 72.9008 75.5128 70.8333 75.5128C68.7658 75.5128 67.0897 77.1888 67.0897 79.2563C67.0897 81.3239 68.7658 82.9999 70.8333 82.9999ZM37.141 49.3078C37.141 51.3663 35.4796 53.0367 33.4245 53.0512C35.4796 53.0658 37.141 54.7362 37.141 56.7947C37.141 58.8623 35.465 60.5383 33.3974 60.5383C31.3299 60.5383 29.6538 58.8623 29.6538 56.7947C29.6538 54.7362 31.3153 53.0658 33.3704 53.0512C31.3153 53.0367 29.6538 51.3663 29.6538 49.3078C29.6538 47.2402 31.3299 45.5642 33.3974 45.5642C35.465 45.5642 37.141 47.2402 37.141 49.3078ZM52.1154 53.0514C52.1154 55.119 50.4393 56.795 48.3718 56.795C46.3043 56.795 44.6282 55.119 44.6282 53.0514C44.6282 50.9839 46.3043 49.3078 48.3718 49.3078C50.4393 49.3078 52.1154 50.9839 52.1154 53.0514ZM37.141 34.3332C37.141 36.4007 35.465 38.0767 33.3974 38.0767C31.3299 38.0767 29.6538 36.4007 29.6538 34.3332C29.6538 32.2746 31.3154 30.6041 33.3705 30.5897C31.3154 30.5752 29.6538 28.9047 29.6538 26.8462C29.6538 24.7787 31.3299 23.1026 33.3974 23.1026C35.465 23.1026 37.141 24.7787 37.141 26.8462C37.141 28.9047 35.4795 30.5752 33.4243 30.5897C35.4795 30.6041 37.141 32.2746 37.141 34.3332ZM63.3462 45.564C65.4137 45.564 67.0898 43.888 67.0898 41.8205C67.0898 39.7529 65.4137 38.0769 63.3462 38.0769C61.2786 38.0769 59.6026 39.7529 59.6026 41.8205C59.6026 43.888 61.2786 45.564 63.3462 45.564ZM37.141 41.8205C37.141 43.888 35.465 45.564 33.3974 45.564C31.3299 45.564 29.6538 43.888 29.6538 41.8205C29.6538 39.7529 31.3299 38.0769 33.3974 38.0769C35.465 38.0769 37.141 39.7529 37.141 41.8205ZM48.3718 49.3077C50.4393 49.3077 52.1154 47.6317 52.1154 45.5641C52.1154 43.4966 50.4393 41.8206 48.3718 41.8206C46.3043 41.8206 44.6282 43.4966 44.6282 45.5641C44.6282 47.6317 46.3043 49.3077 48.3718 49.3077ZM55.859 68.0256C57.9265 68.0256 59.6026 66.3496 59.6026 64.282C59.6026 62.2145 57.9265 60.5384 55.859 60.5384C53.7914 60.5384 52.1154 62.2145 52.1154 64.282C52.1154 66.3496 53.7914 68.0256 55.859 68.0256ZM29.6538 64.282C29.6538 66.3496 27.9778 68.0256 25.9102 68.0256C23.8427 68.0256 22.1667 66.3496 22.1667 64.282C22.1667 62.2145 23.8427 60.5384 25.9102 60.5384C27.9778 60.5384 29.6538 62.2145 29.6538 64.282ZM55.859 75.513C57.9265 75.513 59.6026 73.8369 59.6026 71.7694C59.6026 69.7018 57.9265 68.0258 55.859 68.0258C53.7914 68.0258 52.1154 69.7018 52.1154 71.7694C52.1154 73.8369 53.7914 75.513 55.859 75.513ZM29.6538 71.7694C29.6538 73.8369 27.9778 75.513 25.9102 75.513C23.8427 75.513 22.1667 73.8369 22.1667 71.7694C22.1667 69.7018 23.8427 68.0258 25.9102 68.0258C27.9778 68.0258 29.6538 69.7018 29.6538 71.7694ZM16.5513 71.7693C18.6188 71.7693 20.2949 70.0932 20.2949 68.0257C20.2949 65.9582 18.6188 64.2821 16.5513 64.2821C14.4837 64.2821 12.8077 65.9582 12.8077 68.0257C12.8077 70.0932 14.4837 71.7693 16.5513 71.7693ZM17.4872 30.5899C17.4872 32.6574 15.8111 34.3335 13.7436 34.3335C11.6761 34.3335 10 32.6574 10 30.5899C10 28.5223 11.6761 26.8463 13.7436 26.8463C15.8111 26.8463 17.4872 28.5223 17.4872 30.5899ZM59.6026 49.3078C59.6026 51.3663 57.9411 53.0367 55.886 53.0512C57.9411 53.0658 59.6026 54.7362 59.6026 56.7947C59.6026 58.8623 57.9265 60.5383 55.859 60.5383C53.7914 60.5383 52.1154 58.8623 52.1154 56.7947C52.1154 54.7362 53.7769 53.0658 55.8319 53.0512C53.7769 53.0367 52.1154 51.3663 52.1154 49.3078C52.1154 47.2402 53.7914 45.5642 55.859 45.5642C57.9265 45.5642 59.6026 47.2402 59.6026 49.3078ZM25.9373 53.0512C27.9924 53.0367 29.6538 51.3663 29.6538 49.3078C29.6538 47.2402 27.9778 45.5642 25.9102 45.5642C23.8427 45.5642 22.1667 47.2402 22.1667 49.3078C22.1667 51.3663 23.8281 53.0367 25.8832 53.0512C23.8281 53.0658 22.1667 54.7362 22.1667 56.7947C22.1667 58.8623 23.8427 60.5383 25.9102 60.5383C27.9778 60.5383 29.6538 58.8623 29.6538 56.7947C29.6538 54.7362 27.9924 53.0658 25.9373 53.0512ZM40.8846 56.795C42.9521 56.795 44.6282 55.119 44.6282 53.0514C44.6282 50.9839 42.9521 49.3078 40.8846 49.3078C38.8171 49.3078 37.141 50.9839 37.141 53.0514C37.141 55.119 38.8171 56.795 40.8846 56.795ZM59.6026 34.3332C59.6026 36.4007 57.9265 38.0767 55.859 38.0767C53.7914 38.0767 52.1154 36.4007 52.1154 34.3332C52.1154 32.2746 53.7769 30.6041 55.8321 30.5897C53.7769 30.5752 52.1154 28.9047 52.1154 26.8462C52.1154 24.7787 53.7914 23.1026 55.859 23.1026C57.9265 23.1026 59.6026 24.7787 59.6026 26.8462C59.6026 28.9047 57.941 30.5752 55.8859 30.5897C57.941 30.6041 59.6026 32.2746 59.6026 34.3332ZM25.9102 38.0767C27.9778 38.0767 29.6538 36.4007 29.6538 34.3332C29.6538 32.2746 27.9923 30.6041 25.9372 30.5897C27.9923 30.5752 29.6538 28.9047 29.6538 26.8462C29.6538 24.7787 27.9778 23.1026 25.9102 23.1026C23.8427 23.1026 22.1667 24.7787 22.1667 26.8462C22.1667 28.9047 23.8282 30.5752 25.8833 30.5897C23.8282 30.6041 22.1667 32.2746 22.1667 34.3332C22.1667 36.4007 23.8427 38.0767 25.9102 38.0767ZM59.6026 41.8205C59.6026 43.888 57.9265 45.564 55.859 45.564C53.7914 45.564 52.1154 43.888 52.1154 41.8205C52.1154 39.7529 53.7914 38.0769 55.859 38.0769C57.9265 38.0769 59.6026 39.7529 59.6026 41.8205ZM25.9102 45.564C27.9778 45.564 29.6538 43.888 29.6538 41.8205C29.6538 39.7529 27.9778 38.0769 25.9102 38.0769C23.8427 38.0769 22.1667 39.7529 22.1667 41.8205C22.1667 43.888 23.8427 45.564 25.9102 45.564ZM44.6282 45.5641C44.6282 47.6317 42.9521 49.3077 40.8846 49.3077C38.8171 49.3077 37.141 47.6317 37.141 45.5641C37.141 43.4966 38.8171 41.8206 40.8846 41.8206C42.9521 41.8206 44.6282 43.4966 44.6282 45.5641Z" fill="#F03E3E"/>
<path d="M254.195 25.6115L257.731 25.6228C257.89 25.61 258.05 25.6526 258.182 25.7435C258.345 25.9428 258.472 26.1686 258.559 26.4111L263.155 38.9203C263.202 39.0787 263.255 39.1579 263.309 39.1579C263.364 39.1579 263.413 39.0787 263.468 38.9222L268.341 26.2866C268.414 26.0992 268.529 25.9313 268.678 25.7963C268.823 25.6977 268.996 25.6505 269.171 25.6624L272.628 25.6737C272.841 25.6608 273.042 25.7776 273.137 25.9698C273.241 26.1727 273.241 26.4138 273.137 26.6167L265.97 44.429C265.123 46.5488 264.529 47.9318 264.19 48.578C263.889 49.1655 263.528 49.7204 263.113 50.2338C262.519 51.0143 261.722 51.6165 260.809 51.9745C259.932 52.3136 258.82 52.4864 257.471 52.4931L256.577 52.4932C256.394 52.4924 256.219 52.4207 256.088 52.2932C255.944 52.1632 255.865 51.9762 255.871 51.7821L255.883 48.876C255.885 48.6891 255.963 48.5112 256.1 48.3837C256.227 48.2474 256.405 48.1702 256.592 48.1706H257.418C258.281 48.1706 258.913 48.0443 259.324 47.7935C259.736 47.5426 260.026 47.024 260.213 46.2659L260.452 45.3625C260.479 45.2266 260.486 45.0876 260.475 44.9495C260.463 44.7953 260.429 44.6436 260.375 44.4988L253.563 26.677C253.452 26.4343 253.467 26.1524 253.603 25.9227C253.728 25.7183 253.955 25.5989 254.195 25.6115ZM119.457 25.1381L122.993 25.1495C123.152 25.1369 123.311 25.1795 123.443 25.2702C123.606 25.4707 123.733 25.697 123.821 25.9396L128.407 38.462C128.456 38.6186 128.509 38.6978 128.562 38.6978C128.615 38.6978 128.665 38.6186 128.722 38.462L133.595 25.8265C133.667 25.6391 133.782 25.4713 133.931 25.3362C134.075 25.2375 134.249 25.1904 134.423 25.2022L137.88 25.2136C138.094 25.2007 138.295 25.3174 138.389 25.5096C138.494 25.7126 138.494 25.9536 138.389 26.1565L131.223 43.9688C130.378 46.0886 129.784 47.4716 129.442 48.1178C129.142 48.7065 128.782 49.2627 128.367 49.7774C127.773 50.558 126.975 51.1602 126.061 51.5181C125.186 51.8572 124.074 52.03 122.724 52.0367L121.829 52.0368C121.646 52.036 121.471 51.9643 121.341 51.8368C121.196 51.7071 121.117 51.5196 121.126 51.3257L121.135 48.4196C121.137 48.2323 121.216 48.0541 121.354 47.9274C121.48 47.7907 121.658 47.7134 121.844 47.7143H122.67C123.534 47.7143 124.168 47.5898 124.577 47.3371C124.986 47.0844 125.278 46.5676 125.467 45.8095L125.705 44.9062C125.731 44.7702 125.739 44.6312 125.727 44.4931C125.716 44.339 125.683 44.1873 125.629 44.0424L118.823 26.2037C118.713 25.9607 118.727 25.6794 118.863 25.4493C118.989 25.2452 119.217 25.126 119.457 25.1381ZM153.591 24.9175C156.263 24.9276 158.493 25.9044 160.281 27.8482C162.069 29.7919 162.957 32.204 162.946 35.0844C162.938 37.966 162.027 40.3794 160.213 42.3243C158.501 44.2269 156.044 45.2876 153.486 45.2286C152.345 45.2367 151.214 45.0047 150.168 44.5478C149.154 44.0921 148.253 43.4186 147.528 42.5752L147.5 51.139C147.503 51.3379 147.425 51.5293 147.283 51.669C147.152 51.8056 146.969 51.8808 146.78 51.8766L143.243 51.8651C143.052 51.8594 142.87 51.7812 142.734 51.6464C142.582 51.5124 142.497 51.3175 142.502 51.1145L142.587 25.9717C142.586 25.7723 142.67 25.5819 142.819 25.4493C142.957 25.3156 143.14 25.2394 143.332 25.2362L146.71 25.2475C146.896 25.2491 147.072 25.3276 147.198 25.4644C147.341 25.6041 147.419 25.7966 147.415 25.9962V27.7237C148.152 26.8314 149.081 26.1166 150.133 25.6322C151.219 25.1439 152.4 24.9 153.591 24.9175ZM399.596 26.0281C401.953 26.0358 403.857 26.4759 405.308 27.3484C406.718 28.1641 407.718 29.5363 408.064 31.1278C408.148 31.3392 408.133 31.5776 408.022 31.7765C407.916 31.9198 407.709 31.9915 407.394 31.9896H405.429C405.239 31.9985 405.049 31.9568 404.88 31.8689C404.718 31.7509 404.595 31.5866 404.527 31.3974C404.241 30.6619 403.653 30.0962 402.764 29.7001C401.875 29.3041 400.724 29.1036 399.309 29.0985C397.844 29.0985 396.719 29.3047 395.932 29.7171C395.139 30.1339 394.745 30.7336 394.743 31.52C394.743 32.2272 395.083 32.7779 395.762 33.174C396.441 33.57 397.944 33.9415 400.275 34.2885C401.817 34.506 402.962 34.7066 403.709 34.8901C404.378 35.0483 405.029 35.2746 405.651 35.5653C406.618 36.0141 407.337 36.5925 407.807 37.3003C408.291 38.0636 408.534 38.9545 408.505 39.8576C408.505 41.7699 407.688 43.2862 406.053 44.4064C404.419 45.5266 402.269 46.0817 399.603 46.0718C397.196 46.0641 395.26 45.5926 393.797 44.6572C392.333 43.7218 391.395 42.3482 390.981 40.5365C390.92 40.3504 390.95 40.1465 391.062 39.9858C391.193 39.8471 391.381 39.7774 391.571 39.7972H393.695C393.885 39.7872 394.075 39.8282 394.244 39.916C394.394 40.02 394.504 40.1725 394.555 40.3479C394.87 41.2171 395.51 41.9307 396.339 42.3394C397.188 42.7732 398.359 42.9938 399.852 43.0014C401.425 43.0014 402.66 42.76 403.568 42.2659C404.475 41.7718 404.925 41.0929 404.931 40.2272C404.945 39.4892 404.544 38.8055 403.894 38.4564C403.204 38.0352 401.665 37.6762 399.279 37.3795C397.77 37.1645 396.639 36.9722 395.905 36.7987C395.248 36.6502 394.605 36.4445 393.983 36.1839C393.04 35.7614 392.341 35.1957 391.886 34.4866C391.413 33.7204 391.177 32.8313 391.207 31.9311C391.207 30.0452 391.953 28.5875 393.444 27.5578C394.935 26.5281 396.986 26.0182 399.596 26.0281ZM340.433 25.8226C343.315 25.8328 345.689 26.7757 347.554 28.6516C349.42 30.5274 350.348 32.9338 350.338 35.8708C350.354 36.1311 350.276 36.3885 350.119 36.5969C349.954 36.7757 349.715 36.8688 349.472 36.8496L334.032 36.7968C334.132 38.557 334.76 39.9663 335.918 41.025C337.076 42.0836 338.546 42.6198 340.328 42.6336C341.378 42.648 342.419 42.4297 343.375 41.9943C344.269 41.6028 345.04 40.9773 345.608 40.1839C345.742 39.9745 345.924 39.8004 346.14 39.6765C346.354 39.5684 346.591 39.5152 346.83 39.5219H348.871C349.21 39.5219 349.437 39.6181 349.54 39.7991C349.644 39.9802 349.616 40.2461 349.459 40.5856C348.62 42.2006 347.334 43.5396 345.753 44.4422C344.106 45.3975 342.23 45.8865 340.326 45.8566C337.395 45.8466 335.002 44.9087 333.146 43.0429C331.29 41.1771 330.369 38.7644 330.383 35.8048C330.392 32.898 331.349 30.5048 333.255 28.6252C335.162 26.7455 337.554 25.8114 340.433 25.8226ZM382.246 21.4908C382.432 21.4923 382.609 21.57 382.736 21.7058C382.874 21.8482 382.951 22.0392 382.949 22.2376L382.934 26.3244L386.547 26.3357C386.746 26.3326 386.938 26.4117 387.077 26.5544C387.209 26.6834 387.286 26.8584 387.29 27.0419L387.29 28.7346C387.29 28.9212 387.211 29.0992 387.073 29.2249C386.934 29.3658 386.742 29.4435 386.543 29.4399L382.928 29.4286L382.894 39.6426C382.894 40.6899 383.114 41.4443 383.552 41.9057C383.998 42.3677 384.714 42.5978 385.714 42.5997H386.577C386.776 42.5969 386.967 42.676 387.105 42.8185C387.238 42.9481 387.314 43.1237 387.319 43.3077L387.319 45.0005C387.318 45.1866 387.24 45.3639 387.102 45.4889C386.962 45.6334 386.767 45.7128 386.566 45.7079H385.035C383.043 45.7079 381.597 45.2645 380.697 44.3781C379.797 43.4917 379.351 42.0691 379.358 40.1103L379.392 29.4248H376.956C376.757 29.4285 376.566 29.35 376.428 29.2079C376.293 29.0795 376.216 28.9019 376.214 28.7157V27.0655C376.213 26.8633 376.3 26.6706 376.452 26.5375C376.587 26.4016 376.77 26.3238 376.961 26.3206H379.398L379.413 22.2357C379.408 22.0366 379.487 21.8445 379.63 21.7058C379.758 21.5699 379.935 21.4922 380.122 21.4908H382.246ZM295.728 25.6661C298.607 25.6775 300.98 26.6205 302.847 28.495C304.714 30.3696 305.642 32.7754 305.631 35.7124C305.646 35.9724 305.57 36.2296 305.414 36.4385C305.248 36.6181 305.009 36.7113 304.765 36.6912L289.325 36.6384C289.423 38.3985 290.052 39.8086 291.211 40.8684C292.37 41.9283 293.841 42.4639 295.624 42.4752C296.674 42.4893 297.714 42.2717 298.67 41.8378C299.562 41.4453 300.333 40.8215 300.903 40.0311C301.036 39.8204 301.218 39.6455 301.435 39.5219C301.648 39.4148 301.884 39.3617 302.123 39.3673H304.165C304.505 39.3673 304.727 39.4597 304.833 39.6445C304.939 39.8293 304.912 40.0908 304.752 40.429C303.915 42.0453 302.628 43.3848 301.046 44.2857C299.399 45.2421 297.523 45.7318 295.619 45.702C292.685 45.6919 290.292 44.754 288.437 42.8882C286.583 41.0224 285.662 38.6091 285.674 35.6483C285.686 32.7427 286.643 30.3495 288.546 28.4686C290.45 26.5878 292.844 25.6536 295.728 25.6661ZM365.154 25.9208C367.302 25.9283 368.983 26.5362 370.197 27.7445C371.41 28.9527 372.014 30.6047 372.009 32.7006L371.966 44.9193C371.97 45.1186 371.89 45.3105 371.745 45.4474C371.615 45.5836 371.433 45.6589 371.245 45.655H369.122C368.935 45.6527 368.758 45.5743 368.631 45.438C368.49 45.2975 368.413 45.1052 368.418 44.9062L368.458 33.0815C368.458 31.8758 368.081 30.9184 367.326 30.2093C366.572 29.5002 365.538 29.1438 364.226 29.14C362.889 29.14 361.782 29.509 360.903 30.247C360.062 30.917 359.575 31.9364 359.583 33.0118L359.541 44.876C359.545 45.0754 359.466 45.2674 359.322 45.4059C359.195 45.5422 359.017 45.6194 358.83 45.619H356.756C356.569 45.616 356.391 45.537 356.263 45.4003C356.124 45.2598 356.047 45.0684 356.052 44.8703L356.113 26.9939C356.11 26.7957 356.189 26.6051 356.329 26.4658C356.457 26.3293 356.635 26.2515 356.822 26.2508H358.866C359.052 26.2539 359.23 26.3329 359.356 26.4696C359.497 26.6097 359.574 26.8012 359.569 26.9995V28.5724C360.12 27.7161 360.906 27.0366 361.833 26.6148C362.873 26.136 364.008 25.8987 365.154 25.9208ZM238.483 25.2041C239.64 25.198 240.785 25.4432 241.838 25.9227C242.874 26.3992 243.791 27.1 244.522 27.9745V26.3244C244.518 26.1254 244.597 25.9336 244.739 25.7944C244.867 25.659 245.045 25.582 245.231 25.5813L248.571 25.5926C248.771 25.5911 248.962 25.6704 249.102 25.8125C249.242 25.9547 249.319 26.1475 249.314 26.347L249.25 44.4969C249.248 44.6887 249.17 44.8718 249.033 45.0061C248.901 45.1522 248.713 45.2352 248.516 45.2343L245.176 45.223C244.989 45.2205 244.812 45.1406 244.686 45.0023C244.545 44.8631 244.467 44.6723 244.471 44.4743V42.7449C243.739 43.6375 242.809 44.3477 241.755 44.8194C240.678 45.2913 239.512 45.5279 238.336 45.5134C235.766 45.5511 233.306 44.4756 231.588 42.5639C229.759 40.6076 228.85 38.2018 228.859 35.3465C228.87 32.4913 229.802 30.0848 231.656 28.1273C233.404 26.2144 235.893 25.1489 238.483 25.2041ZM309.276 26.083H311.477C311.627 26.0819 311.772 26.131 311.89 26.2225C312.038 26.3579 312.152 26.5258 312.224 26.7129L317.751 40.8383C317.804 41.0268 317.863 41.1136 317.929 41.1136C317.995 41.1136 318.053 41.0212 318.106 40.8401L323.969 26.6355C324.028 26.48 324.13 26.3445 324.264 26.2452C324.387 26.1663 324.53 26.1256 324.677 26.1282H326.751C326.987 26.1167 327.211 26.2299 327.341 26.4262C327.472 26.6193 327.486 26.8687 327.377 27.075L319.735 44.8835C319.669 45.0467 319.568 45.1934 319.439 45.3135C319.33 45.4169 319.185 45.4749 319.034 45.4759H316.558C316.409 45.4792 316.263 45.4298 316.147 45.3361C316.019 45.2307 315.929 45.0863 315.892 44.925L308.646 27.0637C308.541 26.8431 308.556 26.5834 308.688 26.3772C308.818 26.1814 309.042 26.0693 309.276 26.083ZM215.86 25.1759C218.297 25.1834 220.253 25.6417 221.729 26.5507C223.183 27.4262 224.198 28.8759 224.524 30.5412C224.609 30.7697 224.579 31.0255 224.443 31.2277C224.274 31.4141 224.026 31.5086 223.775 31.4823L220.758 31.471C220.55 31.4788 220.344 31.4236 220.167 31.3126C219.99 31.183 219.855 31.0048 219.777 30.7996C219.541 30.2489 219.066 29.8208 218.346 29.5191C217.625 29.2173 216.718 29.0608 215.619 29.057C214.44 29.057 213.512 29.2268 212.828 29.5794C212.143 29.9321 211.803 30.4055 211.802 31.0089C211.802 31.5596 212.095 31.9921 212.68 32.3064C213.269 32.6252 214.598 32.9156 216.665 33.1872C218.234 33.4022 219.406 33.6027 220.179 33.7888C220.861 33.9429 221.526 34.1685 222.161 34.462C223.155 34.9109 223.886 35.5024 224.354 36.2367C224.842 37.0419 225.085 37.9717 225.054 38.9128C225.046 40.9558 224.209 42.5569 222.542 43.7161C220.875 44.8753 218.598 45.4499 215.713 45.44C212.99 45.4298 210.876 44.9577 209.373 44.0235C207.869 43.0894 206.95 41.6913 206.617 39.8293C206.556 39.6155 206.593 39.3857 206.717 39.2013C206.87 39.0294 207.098 38.9429 207.326 38.9693L210.585 38.9806C210.816 38.9685 211.047 39.0159 211.255 39.1183C211.433 39.2377 211.57 39.4097 211.647 39.6105C211.92 40.2856 212.447 40.8271 213.114 41.1193C213.808 41.4361 214.771 41.5964 216.001 41.6002C217.283 41.6002 218.292 41.4072 219.028 41.0212C219.76 40.6308 220.13 40.0952 220.132 39.4144C220.132 38.8373 219.828 38.3866 219.215 38.0566C218.602 37.7265 217.248 37.4285 215.151 37.1589C213.977 37.0341 212.81 36.8453 211.656 36.5931C210.974 36.4315 210.304 36.219 209.654 35.9575C208.779 35.5859 208.031 34.9689 207.5 34.181C207.012 33.3765 206.77 32.447 206.804 31.5068C206.804 29.4952 207.594 27.9337 209.175 26.8223C210.755 25.7108 212.983 25.162 215.86 25.1759ZM177.12 24.991C180.028 25.0011 182.434 25.9717 184.339 27.9029C186.244 29.834 187.191 32.2794 187.181 35.239C187.205 35.5707 187.122 35.9012 186.944 36.182C186.787 36.3923 186.536 36.5099 186.274 36.495L172.013 36.4479C172.165 37.8309 172.684 38.926 173.571 39.7331C174.457 40.5403 175.596 40.9432 176.988 40.942C177.799 40.9571 178.604 40.7922 179.343 40.4592C180.026 40.1588 180.624 39.6943 181.084 39.107C181.226 38.9147 181.407 38.7552 181.616 38.6393C181.829 38.5303 182.067 38.4771 182.306 38.4847L185.721 38.496C186.099 38.496 186.325 38.5827 186.429 38.7525C186.532 38.9222 186.517 39.1806 186.389 39.52C185.687 41.2855 184.417 42.7667 182.779 43.7294C181.033 44.791 179.022 45.3357 176.978 45.3003C174.018 45.2902 171.591 44.3398 169.699 42.4488C167.807 40.5579 166.864 38.132 166.87 35.1711C166.879 32.2103 167.856 29.7712 169.803 27.8538C171.749 25.9365 174.188 24.9822 177.12 24.991ZM201.282 25.1231C201.803 25.1199 202.32 25.2007 202.815 25.3626C203.287 25.5229 203.585 25.719 203.715 25.9566C203.821 26.0357 203.886 26.1582 203.892 26.2904C203.9 26.4478 203.865 26.6044 203.79 26.743L202.093 29.8001C202.027 29.9447 201.906 30.0573 201.757 30.1131C201.598 30.167 201.425 30.167 201.265 30.1131C201.007 30.0457 200.746 29.9922 200.482 29.9528C200.339 29.9321 200.194 29.9188 200.049 29.9132C199.23 29.8771 198.444 30.2406 197.942 30.8882C197.432 31.5408 197.174 32.4039 197.169 33.4776L197.133 44.3083C197.129 44.5004 197.05 44.6833 196.912 44.8175C196.781 44.9762 196.585 45.0664 196.379 45.0628L192.843 45.0514C192.655 45.0492 192.477 44.9701 192.35 44.8326C192.21 44.6922 192.133 44.5009 192.137 44.3027L192.201 26.1527C192.196 25.9538 192.274 25.7616 192.416 25.6228C192.545 25.4864 192.723 25.4087 192.911 25.4078L196.29 25.421C196.488 25.4167 196.679 25.4953 196.816 25.6379C196.958 25.7774 197.036 25.969 197.033 26.1678V27.388C197.481 26.6796 198.105 26.0994 198.844 25.7039C199.595 25.3096 200.433 25.1099 201.282 25.1231ZM99.0813 18L102.617 18.0113C102.817 18.0074 103.009 18.0874 103.147 18.232C103.291 18.3699 103.369 18.5627 103.362 18.7619L103.334 27.2862C103.885 26.4833 104.64 25.842 105.522 25.4286C106.497 24.9641 107.567 24.7323 108.647 24.7515C110.714 24.7591 112.342 25.3732 113.533 26.594C114.724 27.8148 115.313 29.487 115.3 31.6106L115.257 44.0254C115.254 44.2171 115.176 44.4002 115.04 44.5346C114.907 44.6863 114.715 44.773 114.514 44.7722L111.015 44.7591C110.829 44.7575 110.651 44.679 110.525 44.5422C110.385 44.4016 110.308 44.2104 110.312 44.0122L110.353 32.5082C110.353 31.5125 110.039 30.7192 109.41 30.1282C108.784 29.5361 107.958 29.24 106.938 29.2362C105.889 29.2362 105.024 29.5279 104.341 30.1112C103.666 30.6792 103.287 31.5246 103.313 32.4064L103.274 43.9953C103.27 44.1874 103.191 44.3703 103.053 44.5045C102.92 44.6576 102.726 44.7434 102.523 44.7383L98.987 44.7251C98.8001 44.7201 98.6238 44.6374 98.5004 44.4969C98.3594 44.3572 98.2823 44.1654 98.2873 43.967L98.3722 18.7449C98.37 18.5459 98.449 18.3545 98.591 18.215C98.7181 18.0792 98.8953 18.0015 99.0813 18ZM235.424 31.3786C233.343 33.6256 233.331 37.0923 235.396 39.3541C236.379 40.3948 237.745 40.9883 239.177 40.9969C240.609 41.0054 241.982 40.4282 242.977 39.3993C244.013 38.3281 244.535 36.9942 244.543 35.3974C244.543 33.802 244.034 32.463 243.004 31.3861C242.03 30.3317 240.654 29.7408 239.219 29.7605C237.781 29.7328 236.4 30.3217 235.424 31.3786ZM148.954 31.0618C147.913 32.1317 147.39 33.4656 147.385 35.0636C147.38 36.6616 147.893 37.9994 148.926 39.0768C149.915 40.1111 151.285 40.6961 152.716 40.6961C154.148 40.6961 155.517 40.1111 156.507 39.0768C158.584 36.8279 158.595 33.364 156.533 31.1013C155.565 30.0407 154.19 29.4449 152.754 29.4644H152.75C151.315 29.4337 149.935 30.0145 148.954 31.0618ZM336.199 30.4488C335.045 31.3892 334.301 32.7418 334.125 34.2206L346.536 34.264C346.126 31.2028 343.477 28.9411 340.39 29.0156L340.384 29.008C338.861 28.9688 337.375 29.4804 336.199 30.4488ZM291.49 30.2942C290.335 31.2345 289.592 32.5871 289.416 34.066L301.831 34.1075C301.626 32.6305 300.889 31.2794 299.756 30.3093C298.635 29.3462 297.275 28.8615 295.677 28.8553C294.154 28.8146 292.667 29.3256 291.49 30.2942ZM177.031 29.3908C175.748 29.3908 174.66 29.7467 173.769 30.4583C172.865 31.1931 172.262 32.2327 172.071 33.3814L181.891 33.4154C181.709 32.2699 181.121 31.2283 180.234 30.4809C179.33 29.7483 178.194 29.3618 177.031 29.3908Z" fill="white"/>
<path d="M100.531 57.4932V73.4932H98.6875V57.4932H100.531ZM103.908 73.4932V61.4932H105.752V73.4932H103.908ZM104.846 59.4932C104.486 59.4932 104.176 59.3708 103.916 59.126C103.661 58.8812 103.533 58.587 103.533 58.2432C103.533 57.8995 103.661 57.6052 103.916 57.3604C104.176 57.1156 104.486 56.9932 104.846 56.9932C105.205 56.9932 105.512 57.1156 105.768 57.3604C106.028 57.6052 106.158 57.8995 106.158 58.2432C106.158 58.587 106.028 58.8812 105.768 59.126C105.512 59.3708 105.205 59.4932 104.846 59.4932ZM118.941 61.4932L114.504 73.4932H112.629L108.191 61.4932H110.191L113.504 71.0557H113.629L116.941 61.4932H118.941ZM125.977 73.7432C124.82 73.7432 123.823 73.488 122.984 72.9776C122.151 72.462 121.508 71.7432 121.055 70.8214C120.607 69.8943 120.383 68.8161 120.383 67.587C120.383 66.3578 120.607 65.2745 121.055 64.337C121.508 63.3943 122.138 62.6599 122.945 62.1338C123.758 61.6026 124.706 61.337 125.789 61.337C126.414 61.337 127.031 61.4411 127.641 61.6495C128.25 61.8578 128.805 62.1963 129.305 62.6651C129.805 63.1286 130.203 63.7432 130.5 64.5088C130.797 65.2745 130.945 66.2172 130.945 67.337V68.1182H121.695V66.5245H129.07C129.07 65.8474 128.935 65.2432 128.664 64.712C128.398 64.1807 128.018 63.7615 127.523 63.4542C127.034 63.1469 126.456 62.9932 125.789 62.9932C125.055 62.9932 124.419 63.1755 123.883 63.5401C123.352 63.8995 122.943 64.3682 122.656 64.9463C122.37 65.5245 122.227 66.1443 122.227 66.8057V67.8682C122.227 68.7745 122.383 69.5427 122.695 70.1729C123.013 70.7979 123.453 71.2745 124.016 71.6026C124.578 71.9255 125.232 72.087 125.977 72.087C126.461 72.087 126.898 72.0193 127.289 71.8838C127.685 71.7432 128.026 71.5349 128.313 71.2589C128.599 70.9776 128.82 70.6286 128.977 70.212L130.758 70.712C130.57 71.3161 130.255 71.8474 129.813 72.3057C129.37 72.7589 128.823 73.113 128.172 73.3682C127.521 73.6182 126.789 73.7432 125.977 73.7432ZM144.813 73.7432C143.688 73.7432 142.719 73.4776 141.906 72.9464C141.094 72.4151 140.469 71.6833 140.031 70.751C139.594 69.8187 139.375 68.7536 139.375 67.5557C139.375 66.337 139.599 65.2615 140.047 64.3292C140.5 63.3917 141.13 62.6599 141.938 62.1338C142.75 61.6026 143.698 61.337 144.781 61.337C145.625 61.337 146.385 61.4932 147.063 61.8057C147.74 62.1182 148.294 62.5557 148.727 63.1182C149.159 63.6807 149.427 64.337 149.531 65.087H147.688C147.547 64.5401 147.234 64.0557 146.75 63.6338C146.271 63.2068 145.625 62.9932 144.813 62.9932C144.094 62.9932 143.464 63.1807 142.922 63.5557C142.385 63.9255 141.966 64.449 141.664 65.126C141.367 65.7979 141.219 66.587 141.219 67.4932C141.219 68.4203 141.365 69.2276 141.656 69.9151C141.953 70.6026 142.37 71.1365 142.906 71.5167C143.448 71.8969 144.083 72.087 144.813 72.087C145.292 72.087 145.727 72.0036 146.117 71.837C146.508 71.6703 146.839 71.4307 147.109 71.1182C147.38 70.8057 147.573 70.4307 147.688 69.9932H149.531C149.427 70.7016 149.169 71.3396 148.758 71.9073C148.352 72.4698 147.813 72.9177 147.141 73.251C146.474 73.5792 145.698 73.7432 144.813 73.7432ZM155.758 73.7745C154.997 73.7745 154.307 73.6312 153.688 73.3448C153.068 73.0531 152.576 72.6339 152.211 72.087C151.846 71.5349 151.664 70.8682 151.664 70.087C151.664 69.3995 151.799 68.8422 152.07 68.4151C152.341 67.9828 152.703 67.6443 153.156 67.3995C153.609 67.1547 154.109 66.9724 154.656 66.8526C155.208 66.7276 155.763 66.6286 156.32 66.5557C157.049 66.462 157.641 66.3917 158.094 66.3448C158.552 66.2927 158.885 66.2068 159.094 66.087C159.307 65.9672 159.414 65.7588 159.414 65.462V65.3995C159.414 64.6286 159.203 64.0297 158.781 63.6026C158.365 63.1755 157.732 62.962 156.883 62.962C156.003 62.962 155.313 63.1547 154.813 63.5401C154.313 63.9255 153.961 64.337 153.758 64.7745L152.008 64.1495C152.32 63.4203 152.737 62.8526 153.258 62.4463C153.784 62.0349 154.357 61.7484 154.977 61.587C155.602 61.4203 156.216 61.337 156.82 61.337C157.206 61.337 157.648 61.3838 158.148 61.4776C158.654 61.5661 159.141 61.751 159.609 62.0323C160.083 62.3135 160.477 62.738 160.789 63.3057C161.102 63.8734 161.258 64.6338 161.258 65.587V73.4932H159.414V71.8682H159.32C159.195 72.1286 158.987 72.4073 158.695 72.7042C158.404 73.001 158.016 73.2536 157.531 73.462C157.047 73.6703 156.456 73.7745 155.758 73.7745ZM156.039 72.1182C156.768 72.1182 157.383 71.975 157.883 71.6885C158.388 71.4021 158.768 71.0323 159.023 70.5792C159.284 70.126 159.414 69.6495 159.414 69.1495V67.462C159.336 67.5557 159.164 67.6417 158.898 67.7198C158.638 67.7927 158.336 67.8578 157.992 67.9151C157.654 67.9672 157.323 68.0141 157 68.0557C156.682 68.0922 156.424 68.1234 156.227 68.1495C155.747 68.212 155.299 68.3135 154.883 68.4542C154.471 68.5896 154.138 68.7953 153.883 69.0713C153.633 69.3422 153.508 69.712 153.508 70.1807C153.508 70.8213 153.745 71.3057 154.219 71.6339C154.698 71.9568 155.305 72.1182 156.039 72.1182ZM164.623 77.9932V61.4932H166.404V63.3995H166.623C166.758 63.1911 166.946 62.9255 167.186 62.6026C167.43 62.2745 167.779 61.9828 168.232 61.7276C168.691 61.4672 169.311 61.337 170.092 61.337C171.102 61.337 171.993 61.5896 172.764 62.0948C173.535 62.6 174.136 63.3161 174.568 64.2432C175.001 65.1703 175.217 66.2641 175.217 67.5245C175.217 68.7953 175.001 69.8969 174.568 70.8292C174.136 71.7562 173.537 72.475 172.771 72.9854C172.006 73.4906 171.123 73.7432 170.123 73.7432C169.352 73.7432 168.735 73.6156 168.271 73.3604C167.808 73.1 167.451 72.8057 167.201 72.4776C166.951 72.1443 166.758 71.8682 166.623 71.6495H166.467V77.9932H164.623ZM166.436 67.4932C166.436 68.3995 166.568 69.199 166.834 69.8917C167.1 70.5792 167.488 71.1182 167.998 71.5089C168.508 71.8943 169.133 72.087 169.873 72.087C170.644 72.087 171.287 71.8839 171.803 71.4776C172.324 71.0661 172.714 70.5141 172.975 69.8213C173.24 69.1234 173.373 68.3474 173.373 67.4932C173.373 66.6495 173.243 65.8891 172.982 65.212C172.727 64.5297 172.339 63.9906 171.818 63.5948C171.303 63.1937 170.654 62.9932 169.873 62.9932C169.123 62.9932 168.493 63.1833 167.982 63.5635C167.472 63.9385 167.087 64.4646 166.826 65.1417C166.566 65.8135 166.436 66.5974 166.436 67.4932ZM183.248 61.4932V63.0557H177.029V61.4932H183.248ZM178.842 58.6182H180.686V70.0557C180.686 70.5766 180.761 70.9672 180.912 71.2276C181.068 71.4828 181.266 71.6547 181.506 71.7432C181.751 71.8266 182.008 71.8682 182.279 71.8682C182.482 71.8682 182.649 71.8578 182.779 71.837C182.91 71.8109 183.014 71.7901 183.092 71.7745L183.467 73.4307C183.342 73.4776 183.167 73.5245 182.943 73.5714C182.719 73.6234 182.436 73.6495 182.092 73.6495C181.571 73.6495 181.061 73.5375 180.561 73.3135C180.066 73.0896 179.654 72.7484 179.326 72.2901C179.003 71.8318 178.842 71.2536 178.842 70.5557V58.6182ZM186.021 73.4932V61.4932H187.865V73.4932H186.021ZM186.959 59.4932C186.6 59.4932 186.29 59.3708 186.029 59.126C185.774 58.8812 185.646 58.587 185.646 58.2432C185.646 57.8995 185.774 57.6052 186.029 57.3604C186.29 57.1156 186.6 56.9932 186.959 56.9932C187.318 56.9932 187.626 57.1156 187.881 57.3604C188.141 57.6052 188.271 57.8995 188.271 58.2432C188.271 58.587 188.141 58.8812 187.881 59.126C187.626 59.3708 187.318 59.4932 186.959 59.4932ZM196.117 73.7432C195.034 73.7432 194.083 73.4854 193.266 72.9698C192.453 72.4542 191.818 71.7328 191.359 70.8057C190.906 69.8786 190.68 68.7953 190.68 67.5557C190.68 66.3057 190.906 65.2146 191.359 64.2823C191.818 63.35 192.453 62.626 193.266 62.1104C194.083 61.5948 195.034 61.337 196.117 61.337C197.201 61.337 198.148 61.5948 198.961 62.1104C199.779 62.626 200.414 63.35 200.867 64.2823C201.326 65.2146 201.555 66.3057 201.555 67.5557C201.555 68.7953 201.326 69.8786 200.867 70.8057C200.414 71.7328 199.779 72.4542 198.961 72.9698C198.148 73.4854 197.201 73.7432 196.117 73.7432ZM196.117 72.087C196.94 72.087 197.617 71.876 198.148 71.4542C198.68 71.0323 199.073 70.4776 199.328 69.7901C199.583 69.1026 199.711 68.3578 199.711 67.5557C199.711 66.7536 199.583 66.0062 199.328 65.3135C199.073 64.6208 198.68 64.0609 198.148 63.6338C197.617 63.2068 196.94 62.9932 196.117 62.9932C195.294 62.9932 194.617 63.2068 194.086 63.6338C193.555 64.0609 193.161 64.6208 192.906 65.3135C192.651 66.0062 192.523 66.7536 192.523 67.5557C192.523 68.3578 192.651 69.1026 192.906 69.7901C193.161 70.4776 193.555 71.0323 194.086 71.4542C194.617 71.876 195.294 72.087 196.117 72.087ZM206.213 66.2745V73.4932H204.369V61.4932H206.15V63.3682H206.307C206.588 62.7589 207.015 62.2693 207.588 61.8995C208.161 61.5245 208.9 61.337 209.807 61.337C210.619 61.337 211.33 61.5036 211.939 61.837C212.549 62.1651 213.023 62.6651 213.361 63.337C213.7 64.0036 213.869 64.8474 213.869 65.8682V73.4932H212.025V65.9932C212.025 65.0505 211.781 64.3161 211.291 63.7901C210.801 63.2588 210.13 62.9932 209.275 62.9932C208.687 62.9932 208.161 63.1208 207.697 63.376C207.239 63.6312 206.877 64.0036 206.611 64.4932C206.346 64.9828 206.213 65.5766 206.213 66.2745ZM225.738 64.1807L224.082 64.6495C223.978 64.3734 223.824 64.1052 223.621 63.8448C223.423 63.5792 223.152 63.3604 222.809 63.1885C222.465 63.0167 222.025 62.9307 221.488 62.9307C220.754 62.9307 220.142 63.1 219.652 63.4385C219.168 63.7719 218.926 64.1963 218.926 64.712C218.926 65.1703 219.092 65.5323 219.426 65.7979C219.759 66.0635 220.28 66.2849 220.988 66.462L222.77 66.8995C223.842 67.1599 224.642 67.5583 225.168 68.0948C225.694 68.626 225.957 69.3109 225.957 70.1495C225.957 70.837 225.759 71.4516 225.363 71.9932C224.973 72.5349 224.426 72.962 223.723 73.2745C223.02 73.587 222.202 73.7432 221.27 73.7432C220.046 73.7432 219.033 73.4776 218.23 72.9464C217.428 72.4151 216.921 71.6391 216.707 70.6182L218.457 70.1807C218.624 70.8266 218.939 71.3109 219.402 71.6339C219.871 71.9568 220.483 72.1182 221.238 72.1182C222.098 72.1182 222.78 71.9359 223.285 71.5713C223.796 71.2016 224.051 70.7589 224.051 70.2432C224.051 69.8266 223.905 69.4776 223.613 69.1964C223.322 68.9099 222.874 68.6964 222.27 68.5557L220.27 68.087C219.171 67.8266 218.363 67.4229 217.848 66.876C217.337 66.324 217.082 65.6338 217.082 64.8057C217.082 64.1286 217.272 63.5297 217.652 63.0089C218.038 62.488 218.561 62.0792 219.223 61.7823C219.889 61.4854 220.645 61.337 221.488 61.337C222.676 61.337 223.608 61.5974 224.285 62.1182C224.967 62.6391 225.452 63.3266 225.738 64.1807Z" fill="white"/>
</svg>
