<svg width="254" height="255" viewBox="0 0 254 255" fill="none" xmlns="http://www.w3.org/2000/svg">
<path d="M78.3402 102.39H176.94C190.24 102.39 201.04 113.19 201.04 126.49C201.04 139.79 190.24 150.59 176.94 150.59H78.3402C65.0402 150.59 54.2402 139.79 54.2402 126.49C54.2402 113.19 65.0402 102.39 78.3402 102.39Z" fill="#FCD299"/>
<path d="M78.3402 44.3101H142.02C155.32 44.3101 166.12 55.1101 166.12 68.4101C166.12 81.7101 155.32 92.5101 142.02 92.5101H78.3402C65.0402 92.5101 54.2402 81.7101 54.2402 68.4101C54.2402 55.1101 65.0402 44.3101 78.3402 44.3101Z" fill="#FCD299"/>
<path d="M78.3402 159.55H142.02C155.32 159.55 166.12 170.35 166.12 183.65C166.12 196.95 155.32 207.75 142.02 207.75H78.3402C65.0402 207.75 54.2402 196.95 54.2402 183.65C54.2402 170.35 65.0402 159.55 78.3402 159.55Z" fill="#FCD299"/>
<path d="M141.57 159.55H142.02C155.32 159.55 166.12 170.35 166.12 183.65C166.12 196.95 155.32 207.75 142.02 207.75H141.57C128.27 207.75 117.47 196.95 117.47 183.65C117.47 170.35 128.27 159.55 141.57 159.55Z" fill="#FAB14E"/>
<path d="M78.3402 102.39H78.7902C92.0902 102.39 102.89 113.19 102.89 126.49C102.89 139.79 92.0902 150.59 78.7902 150.59H78.3402C65.0402 150.59 54.2402 139.79 54.2402 126.49C54.2402 113.19 65.0402 102.39 78.3402 102.39Z" fill="#FAB14E"/>
</svg>
